<?xml version="1.0" encoding="UTF-8"?>
<svg width="32" height="32" viewBox="0 0 32 32" fill="none" xmlns="http://www.w3.org/2000/svg">
  <path d="M16 28.5C16 28.5 3.5 20 3.5 11.5C3.5 8.5 5.5 6.5 8.5 6.5C10.5 6.5 12.5 7.5 13.5 9C14.5 7.5 16.5 6.5 18.5 6.5C21.5 6.5 23.5 8.5 23.5 11.5C23.5 20 11 28.5 11 28.5H16Z" fill="#E91E63"/>
  <path d="M16 28.5C16 28.5 28.5 20 28.5 11.5C28.5 8.5 26.5 6.5 23.5 6.5C21.5 6.5 19.5 7.5 18.5 9C17.5 7.5 15.5 6.5 13.5 6.5C10.5 6.5 8.5 8.5 8.5 11.5C8.5 20 21 28.5 21 28.5H16Z" fill="#E91E63"/>
</svg> 